# xmcd
#
# Track frame offsets:
#	150
#	17129
#	35756
#	53884
#	74053
#	89647
#	103750
#	121418
#	128495
#	149733
#	167592
#	185199
#	202068
#	219110
#
# Disc length: 3190 seconds
# Revision: 0
# Processed by: cddbd v1.5.2PL0 Copyright (c) Steve Scherf et al.
# Submitted via: dBpowerAMP V12.0
#
DISCID=de0c740e
DTITLE=Tex Perkins and The Dark Horses - Tex Perkins and The Dark Horses
DYEAR=2011
DGENRE=Country
TTITLE0=What Do You Want Now?
TTITLE1=Life Gets In The Way
TTITLE2=Looking At You But Seeing Her
TTITLE3=Word To Come
TTITLE4=So Much Older
TTITLE5=Won't Last Long
TTITLE6=You Haunt Me
TTITLE7=Three Guitars
TTITLE8=Getting Away With It
TTITLE9=Everything is Gonna Be Alright
TTITLE10=Necessary Evil
TTITLE11=Snakes
TTITLE12=Easier Without You
TTITLE13=Things Don't Seem So Bad...After All
EXTD=
EXTT0=
EXTT1=
EXTT2=
EXTT3=
EXTT4=
EXTT5=
EXTT6=
EXTT7=
EXTT8=
EXTT9=
EXTT10=
EXTT11=
EXTT12=
EXTT13=
PLAYORDER=
